<svg xmlns="http://www.w3.org/2000/svg" xmlns:xlink="http://www.w3.org/1999/xlink" width="449" height="18" viewBox="0 0 449 18">
    <defs>
        <path id="a" d="M0 17.396h448.693V0H0z"/>
    </defs>
    <g fill="none" fill-rule="evenodd">
        <path fill="#FEFEFE" d="M3.475 14.197h3.424c1.275 0 1.95-.625 1.95-1.725v-.824c0-1.125-.7-1.775-2.075-1.775H3.475v4.324zm0-6.798h3.274c1.275 0 2.024-.625 2.024-1.775v-.8C8.773 3.8 8.074 3.2 6.824 3.2H3.475v4.2zM7.399.375c3.099 0 4.848 1.525 4.848 4v.75c0 1.974-1.024 2.948-2.724 3.423v.075c1.825.475 2.875 1.6 2.875 3.45v.874c0 2.575-1.8 4.074-4.799 4.074H0V.375h7.399zM23.974 8.174h2.9c1.774 0 2.55-.75 2.55-2v-.95c0-1.274-.726-2-2.5-2h-2.95v4.95zm0 8.848h-3.573V.376h7.247c3.5 0 5.35 1.799 5.35 4.649v1.274c0 2.075-1.125 3.6-3 4.274l3.55 6.449h-3.875L26.4 10.948h-2.425v6.074z"/>
        <mask id="b" fill="#fff">
            <use xlink:href="#a"/>
        </mask>
        <path fill="#FEFEFE" d="M41.075 17.021h3.599V.375h-3.599zM66.047 5.474v.675h-3.524v-.35c0-1.7-.9-2.774-2.8-2.774-2.124 0-3.299 1.499-3.299 3.849v3.724c0 2.349 1.25 3.849 3.225 3.849 1.85 0 3.1-1.2 3.1-3.024v-.7h-3V8.248h6.473v8.773h-1.65l-.549-2.524c-.826 1.499-2.275 2.874-4.975 2.874-3.698 0-6.248-2.574-6.248-6.748V6.874c0-4.099 2.65-6.849 6.923-6.849 4.1 0 6.324 2.125 6.324 5.449M78.099.375V7h5.899V.375h3.599v16.646h-3.599v-6.874h-5.899v6.874H74.5V.375zM100.324 11.123h4.249l-2.1-6.798h-.05l-2.1 6.798zm5.099 2.749h-5.95L98.5 17.02h-3.525L100.499.275h4.074l5.524 16.746h-3.7l-.974-3.15zM122.549.375l3.799 11.497h.05L130.097.375h5.098v16.646h-3.374V4.474h-.05l-4.148 12.547h-2.75l-4.174-12.547h-.05v12.547h-3.174V.375zM155.949.375l3.424 7.098 3.424-7.098h3.799l-5.523 10.297v6.35h-3.6v-6.35L152 .375zM175.273 6.974v3.449c0 2.699 1.225 3.899 3.4 3.899 2.148 0 3.373-1.2 3.373-3.899V6.974c0-2.7-1.225-3.899-3.374-3.899-2.174 0-3.399 1.199-3.399 3.899m10.397.1v3.249c0 4.649-2.724 7.073-6.998 7.073-4.299 0-7.024-2.424-7.024-7.073V7.074c0-4.649 2.725-7.074 7.024-7.074 4.274 0 6.998 2.425 6.998 7.074M197.123.375v10.697c0 2.075 1.05 3.2 2.949 3.2 1.9 0 2.949-1.125 2.949-3.2V.375h3.425v10.547c0 4.1-2.15 6.474-6.474 6.474-4.373 0-6.448-2.325-6.448-6.474V.375h3.599zM218.423.375l6.399 10.672h.05L224.846.375h3.225v16.646h-3.524l-6.474-10.797h-.05l.05 10.797h-3.224V.375zM249.345 5.474v.675h-3.523v-.35c0-1.7-.9-2.774-2.8-2.774-2.124 0-3.299 1.499-3.299 3.849v3.724c0 2.349 1.25 3.849 3.224 3.849 1.85 0 3.1-1.2 3.1-3.024v-.7h-3V8.248h6.474v8.773h-1.65l-.55-2.524c-.825 1.499-2.275 2.874-4.974 2.874-3.699 0-6.248-2.574-6.248-6.748V6.874c0-4.099 2.65-6.849 6.923-6.849 4.1 0 6.323 2.125 6.323 5.449M270.923.375v10.697c0 2.075 1.05 3.2 2.95 3.2 1.9 0 2.948-1.125 2.948-3.2V.375h3.424v10.547c0 4.1-2.149 6.474-6.473 6.474-4.374 0-6.449-2.325-6.449-6.474V.375h3.6zM292.222.375l6.398 10.672h.05L298.645.375h3.223v16.646h-3.523l-6.474-10.797h-.049l.049 10.797h-3.223V.375zM310.548 17.021h3.6V.375h-3.6zM325.497.375l3.573 11.847h.05L332.695.375h3.697l-5.596 16.771h-3.575L321.599.376zM355.145.375V3.45h-7.873v3.675h6.099v2.9h-6.1v3.923h7.898v3.074h-11.396V.375zM366.597 8.174h2.899c1.775 0 2.549-.75 2.549-2v-.95c0-1.274-.724-2-2.499-2h-2.949v4.95zm0 8.848h-3.574V.376h7.248c3.499 0 5.347 1.799 5.347 4.649v1.274c0 2.075-1.125 3.6-2.998 4.274l3.549 6.449h-3.874l-3.274-6.074h-2.424v6.074zM395.72 5.1v.55h-3.55v-.476c0-1.225-.825-2.2-2.825-2.2-1.649 0-2.524.725-2.524 1.776 0 1.274.85 1.623 3.65 2.548 4.173 1.175 5.447 2.4 5.447 5.1 0 3.149-2.598 4.924-6.423 4.924-4.449 0-6.498-2.025-6.498-5.1v-.75h3.55v.5c0 1.55 1.024 2.45 3.048 2.45 1.75 0 2.725-.676 2.725-1.825 0-1.324-.65-1.65-3.749-2.649-3.924-1.05-5.349-2.275-5.349-5.049 0-2.849 2.324-4.824 6.224-4.824 4.273 0 6.273 2.05 6.273 5.024M403.77 17.021h3.601V.375h-3.601zM428.069.375v3.15h-4.748V17.02h-3.574V3.524h-4.775V.375zM438.046.375l3.424 7.098 3.425-7.098h3.797l-5.522 10.297v6.35h-3.6v-6.35L434.096.375z" mask="url(#b)"/>
    </g>
</svg>
